<svg xmlns="http://www.w3.org/2000/svg" version="1.1" width="660px" height="643px" style="shape-rendering:geometricPrecision; text-rendering:geometricPrecision; image-rendering:optimizeQuality; fill-rule:evenodd; clip-rule:evenodd" xmlns:xlink="http://www.w3.org/1999/xlink">
<g><path style="opacity:0.995" fill="#000000" d="M 313.5,37.5 C 418.892,32.6173 501.725,72.9506 562,158.5C 607.154,231.391 617.487,309.058 593,391.5C 562.178,479.655 502.344,538.155 413.5,567C 309.094,593.737 218.594,569.57 142,494.5C 78.0484,423.05 55.715,340.05 75,245.5C 94.6122,168.251 138.779,109.751 207.5,70C 240.818,52.1685 276.152,41.3351 313.5,37.5 Z"/></g>
<g><path style="opacity:1" fill="#fcfbfb" d="M 192.5,235.5 C 198.5,235.5 204.5,235.5 210.5,235.5C 210.5,273.167 210.5,310.833 210.5,348.5C 204.5,348.5 198.5,348.5 192.5,348.5C 192.5,317.5 192.5,286.5 192.5,255.5C 185.492,255.334 178.492,255.5 171.5,256C 168.417,256.786 166.251,258.619 165,261.5C 163.844,265.418 163.344,269.418 163.5,273.5C 169.5,273.5 175.5,273.5 181.5,273.5C 181.5,279.5 181.5,285.5 181.5,291.5C 175.5,291.5 169.5,291.5 163.5,291.5C 163.5,310.5 163.5,329.5 163.5,348.5C 157.5,348.5 151.5,348.5 145.5,348.5C 145.5,329.5 145.5,310.5 145.5,291.5C 141.167,291.5 136.833,291.5 132.5,291.5C 132.5,285.5 132.5,279.5 132.5,273.5C 136.833,273.5 141.167,273.5 145.5,273.5C 142.995,255.982 149.995,244.482 166.5,239C 175.16,238.5 183.827,238.334 192.5,238.5C 192.5,237.5 192.5,236.5 192.5,235.5 Z"/></g>
<g><path style="opacity:1" fill="#fb7d53" d="M 259.5,240.5 C 266.5,240.5 273.5,240.5 280.5,240.5C 293.43,276.286 306.763,311.953 320.5,347.5C 313.944,348.81 307.444,348.81 301,347.5C 298.358,340.569 295.524,333.735 292.5,327C 277.156,326.167 261.822,326.334 246.5,327.5C 244.029,334.246 241.362,340.913 238.5,347.5C 231.858,348.664 225.192,348.831 218.5,348C 232.309,312.216 245.976,276.382 259.5,240.5 Z"/></g>
<g><path style="opacity:1" fill="#fcfbfb" d="M 401.5,240.5 C 407.5,240.5 413.5,240.5 419.5,240.5C 419.168,253.517 419.501,266.517 420.5,279.5C 432.89,269.853 445.89,269.02 459.5,277C 463.528,280.887 466.694,285.387 469,290.5C 470.45,309.779 470.95,329.112 470.5,348.5C 464.5,348.5 458.5,348.5 452.5,348.5C 452.942,331.444 452.442,314.444 451,297.5C 448.353,291.088 443.52,288.088 436.5,288.5C 428.262,289.227 422.762,293.56 420,301.5C 419.5,317.163 419.333,332.83 419.5,348.5C 413.5,348.5 407.5,348.5 401.5,348.5C 401.5,312.5 401.5,276.5 401.5,240.5 Z"/></g>
<g><path style="opacity:1" fill="#fe7e54" d="M 489.5,240.5 C 495.5,240.5 501.5,240.5 507.5,240.5C 507.5,276.5 507.5,312.5 507.5,348.5C 501.5,348.5 495.5,348.5 489.5,348.5C 489.5,312.5 489.5,276.5 489.5,240.5 Z"/></g>
<g><path style="opacity:1" fill="#040100" d="M 269.5,265.5 C 275.242,279.544 280.909,293.711 286.5,308C 275.485,308.832 264.485,308.666 253.5,307.5C 259.036,293.554 264.37,279.554 269.5,265.5 Z"/></g>
<g><path style="opacity:1" fill="#f9f8f8" d="M 348.5,271.5 C 360.237,270.026 371.237,272.193 381.5,278C 383.585,279.041 385.252,280.541 386.5,282.5C 383.524,286.644 380.357,290.644 377,294.5C 367.831,288.054 357.997,286.554 347.5,290C 344.39,294.637 345.724,297.637 351.5,299C 361.211,300.857 370.544,303.857 379.5,308C 392.458,319.634 392.792,331.634 380.5,344C 364.591,352.602 348.591,352.602 332.5,344C 329.689,342.356 327.356,340.19 325.5,337.5C 328.486,333.183 331.82,329.183 335.5,325.5C 344.387,332.722 354.387,335.222 365.5,333C 371.849,330.598 372.849,326.931 368.5,322C 357.678,318.393 347.012,314.393 336.5,310C 328.527,304.537 325.693,297.037 328,287.5C 332.371,278.957 339.204,273.624 348.5,271.5 Z"/></g>
</svg>
