<?xml version="1.0" encoding="UTF-8"?>
<!DOCTYPE svg PUBLIC "-//W3C//DTD SVG 1.1//EN" "http://www.w3.org/Graphics/SVG/1.1/DTD/svg11.dtd">
<svg xmlns="http://www.w3.org/2000/svg" version="1.1" width="720px" height="366px" style="shape-rendering:geometricPrecision; text-rendering:geometricPrecision; image-rendering:optimizeQuality; fill-rule:evenodd; clip-rule:evenodd" xmlns:xlink="http://www.w3.org/1999/xlink">
<g><path style="opacity:0.981" fill="#fefefd" d="M 129.5,50.5 C 139.5,50.5 149.5,50.5 159.5,50.5C 159.5,113.167 159.5,175.833 159.5,238.5C 149.5,238.5 139.5,238.5 129.5,238.5C 129.5,187.167 129.5,135.833 129.5,84.5C 118.828,84.3335 108.161,84.5002 97.5,85C 90.1854,86.3162 85.3521,90.4829 83,97.5C 81.7288,102.754 81.2288,108.087 81.5,113.5C 91.8333,113.5 102.167,113.5 112.5,113.5C 112.5,123.5 112.5,133.5 112.5,143.5C 102.167,143.5 91.8333,143.5 81.5,143.5C 81.5,175.167 81.5,206.833 81.5,238.5C 71.5,238.5 61.5,238.5 51.5,238.5C 51.5,206.833 51.5,175.167 51.5,143.5C 44.5,143.5 37.5,143.5 30.5,143.5C 30.5,133.5 30.5,123.5 30.5,113.5C 37.5,113.5 44.5,113.5 51.5,113.5C 48.5516,94.1816 53.8849,77.6816 67.5,64C 73.9522,59.9424 80.9522,57.2757 88.5,56C 102.163,55.5001 115.829,55.3334 129.5,55.5C 129.5,53.8333 129.5,52.1667 129.5,50.5 Z"/></g>
<g><path style="opacity:0.969" fill="#fe8054" d="M 241.5,58.5 C 253.081,58.1789 264.581,58.5122 276,59.5C 298.402,118.872 320.902,178.206 343.5,237.5C 332.5,238.833 321.5,238.833 310.5,237.5C 306.123,225.531 301.456,213.698 296.5,202C 271.167,201.333 245.833,201.333 220.5,202C 215.833,214 211.167,226 206.5,238C 195.485,238.832 184.485,238.666 173.5,237.5C 196.458,177.922 219.124,118.256 241.5,58.5 Z M 258.5,100.5 C 268.071,123.869 277.071,147.536 285.5,171.5C 267.488,171.833 249.488,171.5 231.5,170.5C 240.508,147.138 249.508,123.805 258.5,100.5 Z"/></g>
<g><path style="opacity:0.976" fill="#fefefd" d="M 476.5,58.5 C 486.5,58.5 496.5,58.5 506.5,58.5C 506.167,80.5101 506.5,102.51 507.5,124.5C 524.702,109.901 544.035,106.401 565.5,114C 582.122,122.313 591.289,135.813 593,154.5C 593.5,182.498 593.667,210.498 593.5,238.5C 583.5,238.5 573.5,238.5 563.5,238.5C 563.667,215.498 563.5,192.498 563,169.5C 562.743,146.23 551.243,136.397 528.5,140C 514.341,145.126 507.175,155.293 507,170.5C 506.5,193.164 506.333,215.831 506.5,238.5C 496.5,238.5 486.5,238.5 476.5,238.5C 476.5,178.5 476.5,118.5 476.5,58.5 Z"/></g>
<g><path style="opacity:0.983" fill="#fe8054" d="M 624.5,58.5 C 634.5,58.5 644.5,58.5 654.5,58.5C 654.5,118.5 654.5,178.5 654.5,238.5C 644.5,238.5 634.5,238.5 624.5,238.5C 624.5,178.5 624.5,118.5 624.5,58.5 Z"/></g>
<g><path style="opacity:0.956" fill="#fefefd" d="M 391.5,110.5 C 414.964,107.526 435.63,113.526 453.5,128.5C 448.182,135.814 442.516,142.814 436.5,149.5C 422.735,138.725 407.401,135.559 390.5,140C 382.174,146.424 383.174,151.424 393.5,155C 402.079,157.645 410.746,159.978 419.5,162C 430.708,164.686 440.541,169.853 449,177.5C 459.027,191.515 460.027,206.182 452,221.5C 439.612,235.934 423.779,242.6 404.5,241.5C 383.158,241.888 364.824,234.722 349.5,220C 355.339,212.783 361.506,205.949 368,199.5C 378.714,208.353 391.048,213.353 405,214.5C 410.34,214.099 415.507,212.932 420.5,211C 428.5,205 428.5,199 420.5,193C 404.77,187.868 389.103,182.534 373.5,177C 357.574,168.978 351.407,156.145 355,138.5C 358.287,128.213 364.787,120.713 374.5,116C 380.137,113.682 385.803,111.849 391.5,110.5 Z"/></g>
<g><path style="opacity:0.951" fill="#fdfefd" d="M 342.5,274.5 C 343.833,274.5 345.167,274.5 346.5,274.5C 346.5,282.833 346.5,291.167 346.5,299.5C 345.167,299.5 343.833,299.5 342.5,299.5C 342.5,292.833 342.5,286.167 342.5,279.5C 339.654,279.03 337.321,279.863 335.5,282C 337.134,282.494 338.801,282.66 340.5,282.5C 340.5,283.833 340.5,285.167 340.5,286.5C 338.833,286.5 337.167,286.5 335.5,286.5C 335.5,290.833 335.5,295.167 335.5,299.5C 334.167,299.5 332.833,299.5 331.5,299.5C 331.5,295.167 331.5,290.833 331.5,286.5C 330.5,286.5 329.5,286.5 328.5,286.5C 328.5,285.167 328.5,283.833 328.5,282.5C 329.5,282.5 330.5,282.5 331.5,282.5C 331.104,279.956 331.771,277.789 333.5,276C 336.695,275.819 339.695,275.319 342.5,274.5 Z"/></g>
<g><path style="opacity:0.848" fill="#fe8054" d="M 157.5,275.5 C 159.467,275.261 161.301,275.594 163,276.5C 165.931,283.794 168.765,291.127 171.5,298.5C 167.94,299.972 165.607,298.805 164.5,295C 161.5,294.333 158.5,294.333 155.5,295C 154.726,299.257 152.392,300.423 148.5,298.5C 151.704,290.884 154.704,283.217 157.5,275.5 Z M 159.5,282.5 C 160.914,284.867 162.248,287.367 163.5,290C 161.527,290.495 159.527,290.662 157.5,290.5C 158.167,287.833 158.833,285.167 159.5,282.5 Z"/></g>
<g><path style="opacity:1" fill="#fe8054" d="M 172.5,275.5 C 173.833,275.5 175.167,275.5 176.5,275.5C 176.5,283.5 176.5,291.5 176.5,299.5C 175.167,299.5 173.833,299.5 172.5,299.5C 172.5,291.5 172.5,283.5 172.5,275.5 Z"/></g>
<g><path style="opacity:0.87" fill="#fdfefd" d="M 313.5,275.5 C 314.833,275.5 316.167,275.5 317.5,275.5C 317.5,283.5 317.5,291.5 317.5,299.5C 313.314,299.208 308.98,299.042 304.5,299C 299.167,293.667 299.167,288.333 304.5,283C 307.429,282.223 310.263,282.39 313,283.5C 313.497,280.854 313.664,278.187 313.5,275.5 Z M 308.5,286.5 C 314.763,289.239 314.93,292.239 309,295.5C 303.267,292.654 303.1,289.654 308.5,286.5 Z"/></g>
<g><path style="opacity:0.944" fill="#fdfefd" d="M 385.5,275.5 C 386.833,275.5 388.167,275.5 389.5,275.5C 389.336,278.187 389.503,280.854 390,283.5C 392.401,282.398 394.901,282.231 397.5,283C 398.667,283.5 399.5,284.333 400,285.5C 400.499,290.155 400.666,294.821 400.5,299.5C 399.167,299.5 397.833,299.5 396.5,299.5C 396.665,296.15 396.498,292.817 396,289.5C 394,285.5 392,285.5 390,289.5C 389.502,292.817 389.335,296.15 389.5,299.5C 388.167,299.5 386.833,299.5 385.5,299.5C 385.5,291.5 385.5,283.5 385.5,275.5 Z"/></g>
<g><path style="opacity:0.87" fill="#fdfefd" d="M 472.5,275.5 C 473.833,275.5 475.167,275.5 476.5,275.5C 476.5,283.5 476.5,291.5 476.5,299.5C 472.314,299.208 467.98,299.042 463.5,299C 458.167,293.667 458.167,288.333 463.5,283C 466.429,282.223 469.263,282.39 472,283.5C 472.497,280.854 472.664,278.187 472.5,275.5 Z M 467.5,286.5 C 473.763,289.239 473.93,292.239 468,295.5C 462.267,292.654 462.1,289.654 467.5,286.5 Z"/></g>
<g><path style="opacity:0.923" fill="#fdfefd" d="M 598.5,278.5 C 599.833,278.5 601.167,278.5 602.5,278.5C 602.5,279.833 602.5,281.167 602.5,282.5C 604.167,282.5 605.833,282.5 607.5,282.5C 607.5,283.833 607.5,285.167 607.5,286.5C 605.833,286.5 604.167,286.5 602.5,286.5C 602.336,289.187 602.503,291.854 603,294.5C 604.356,295.38 605.856,295.714 607.5,295.5C 607.5,296.833 607.5,298.167 607.5,299.5C 604.315,299.98 601.481,299.314 599,297.5C 598.501,293.848 598.335,290.182 598.5,286.5C 597.5,286.5 596.5,286.5 595.5,286.5C 596.217,283.677 597.217,281.01 598.5,278.5 Z"/></g>
<g><path style="opacity:0.81" fill="#fdfefd" d="M 71.5,282.5 C 73.4672,282.261 75.3005,282.594 77,283.5C 78.1392,286.583 79.4725,289.583 81,292.5C 82.1667,289.5 83.3333,286.5 84.5,283.5C 86.4213,282.359 88.4213,282.192 90.5,283C 87.1431,290.066 83.9764,297.233 81,304.5C 78.8646,306.278 76.3646,306.945 73.5,306.5C 73.238,305.022 73.5713,303.689 74.5,302.5C 76.3031,301.863 77.6364,300.697 78.5,299C 75.7496,293.667 73.4162,288.167 71.5,282.5 Z"/></g>
<g><path style="opacity:0.832" fill="#fdfefd" d="M 95.5,282.5 C 102.603,281.202 106.603,284.035 107.5,291C 107.333,296.5 104.5,299.333 99,299.5C 91.8749,298.602 89.2083,294.602 91,287.5C 92.025,285.313 93.525,283.646 95.5,282.5 Z M 98.5,286.5 C 104.763,289.239 104.93,292.239 99,295.5C 93.267,292.654 93.1003,289.654 98.5,286.5 Z"/></g>
<g><path style="opacity:0.929" fill="#fdfefd" d="M 110.5,282.5 C 111.833,282.5 113.167,282.5 114.5,282.5C 114.335,285.85 114.502,289.183 115,292.5C 117,296.5 119,296.5 121,292.5C 121.498,289.183 121.665,285.85 121.5,282.5C 122.833,282.5 124.167,282.5 125.5,282.5C 125.5,288.167 125.5,293.833 125.5,299.5C 122.622,298.415 119.789,298.415 117,299.5C 114.855,299.604 113.021,298.937 111.5,297.5C 110.552,292.565 110.219,287.565 110.5,282.5 Z"/></g>
<g><path style="opacity:0.949" fill="#fdfefd" d="M 129.5,282.5 C 132.5,283.833 135.5,283.833 138.5,282.5C 138.762,283.978 138.429,285.311 137.5,286.5C 135.866,286.968 134.7,287.968 134,289.5C 133.502,292.817 133.335,296.15 133.5,299.5C 132.167,299.5 130.833,299.5 129.5,299.5C 129.5,293.833 129.5,288.167 129.5,282.5 Z"/></g>
<g><path style="opacity:0.872" fill="#fdfefd" d="M 190.5,282.5 C 194.686,282.792 199.02,282.958 203.5,283C 208.833,288.333 208.833,293.667 203.5,299C 200.571,299.777 197.737,299.61 195,298.5C 194.502,301.482 194.335,304.482 194.5,307.5C 193.167,307.5 191.833,307.5 190.5,307.5C 190.5,299.167 190.5,290.833 190.5,282.5 Z M 198.5,286.5 C 204.763,289.239 204.93,292.239 199,295.5C 193.267,292.654 193.1,289.654 198.5,286.5 Z"/></g>
<g><path style="opacity:0.832" fill="#fdfefd" d="M 214.5,282.5 C 221.603,281.202 225.603,284.035 226.5,291C 226.333,296.5 223.5,299.333 218,299.5C 210.875,298.602 208.208,294.602 210,287.5C 211.025,285.313 212.525,283.646 214.5,282.5 Z M 217.5,286.5 C 223.763,289.239 223.93,292.239 218,295.5C 212.267,292.654 212.1,289.654 217.5,286.5 Z"/></g>
<g><path style="opacity:0.837" fill="#fdfefd" d="M 227.5,282.5 C 229.288,282.215 230.955,282.548 232.5,283.5C 233.332,286.161 234.166,288.828 235,291.5C 235.834,288.828 236.668,286.161 237.5,283.5C 239.045,282.548 240.712,282.215 242.5,282.5C 242.826,285.311 243.659,287.978 245,290.5C 245.761,287.947 246.594,285.447 247.5,283C 249.259,282.202 250.926,282.369 252.5,283.5C 250.679,288.452 249.012,293.452 247.5,298.5C 245.604,299.466 243.604,299.799 241.5,299.5C 240.883,290.435 239.55,290.268 237.5,299C 235.559,299.743 233.726,299.576 232,298.5C 230.392,293.178 228.892,287.845 227.5,282.5 Z"/></g>
<g><path style="opacity:0.839" fill="#fdfefd" d="M 256.5,282.5 C 265.011,280.696 269.344,284.029 269.5,292.5C 265.445,292.176 261.445,292.509 257.5,293.5C 260.294,296.1 263.127,296.1 266,293.5C 268.952,295.193 269.118,297.026 266.5,299C 255.838,301.336 251.338,297.169 253,286.5C 254.376,285.295 255.542,283.962 256.5,282.5 Z M 258.5,286.5 C 260.977,286.051 262.977,286.717 264.5,288.5C 261.894,289.652 259.227,289.818 256.5,289C 257.381,288.292 258.047,287.458 258.5,286.5 Z"/></g>
<g><path style="opacity:0.949" fill="#fdfefd" d="M 281.5,286.5 C 279.418,286.624 277.918,287.624 277,289.5C 276.502,292.817 276.335,296.15 276.5,299.5C 275.167,299.5 273.833,299.5 272.5,299.5C 272.5,293.833 272.5,288.167 272.5,282.5C 275.5,283.833 278.5,283.833 281.5,282.5C 281.5,283.833 281.5,285.167 281.5,286.5 Z"/></g>
<g><path style="opacity:0.839" fill="#fdfefd" d="M 281.5,286.5 C 287.001,281.203 292.501,281.203 298,286.5C 298.495,288.473 298.662,290.473 298.5,292.5C 294.445,292.176 290.445,292.509 286.5,293.5C 289.294,296.1 292.127,296.1 295,293.5C 297.952,295.193 298.118,297.026 295.5,299C 284.994,301.327 280.328,297.16 281.5,286.5 Z M 287.5,286.5 C 289.977,286.051 291.977,286.717 293.5,288.5C 290.894,289.652 288.227,289.818 285.5,289C 286.381,288.292 287.047,287.458 287.5,286.5 Z"/></g>
<g><path style="opacity:0.849" fill="#fdfefd" d="M 352.5,282.5 C 356.989,282.956 361.322,282.956 365.5,282.5C 365.5,288.167 365.5,293.833 365.5,299.5C 361.314,299.208 356.98,299.042 352.5,299C 347.203,293.501 347.203,288.001 352.5,282.5 Z M 356.5,286.5 C 362.763,289.239 362.93,292.239 357,295.5C 351.267,292.654 351.1,289.654 356.5,286.5 Z"/></g>
<g><path style="opacity:0.78" fill="#fdfefd" d="M 371.5,282.5 C 375.869,281.923 379.869,282.757 383.5,285C 382.601,286.236 381.434,287.07 380,287.5C 378.211,286.591 376.377,286.424 374.5,287C 377.586,287.984 380.419,289.484 383,291.5C 384.649,297.523 382.315,300.189 376,299.5C 373.41,299.624 371.077,298.958 369,297.5C 368.691,295.609 369.525,294.275 371.5,293.5C 373.599,295.52 375.933,295.854 378.5,294.5C 375.956,292.981 373.289,291.648 370.5,290.5C 369.102,287.565 369.435,284.898 371.5,282.5 Z"/></g>
<g><path style="opacity:0.806" fill="#fdfefd" d="M 417.5,282.5 C 420.187,282.336 422.854,282.503 425.5,283C 428.156,285.229 427.823,287.062 424.5,288.5C 421.041,286.037 418.375,286.871 416.5,291C 417.369,293.368 419.035,294.868 421.5,295.5C 423.952,292.716 425.952,293.049 427.5,296.5C 427.023,297.478 426.357,298.311 425.5,299C 415.836,301 411.669,297.167 413,287.5C 414.025,285.313 415.525,283.646 417.5,282.5 Z"/></g>
<g><path style="opacity:0.849" fill="#fdfefd" d="M 432.5,282.5 C 436.989,282.956 441.322,282.956 445.5,282.5C 445.5,288.167 445.5,293.833 445.5,299.5C 441.314,299.208 436.98,299.042 432.5,299C 427.203,293.501 427.203,288.001 432.5,282.5 Z M 436.5,286.5 C 442.763,289.239 442.93,292.239 437,295.5C 431.267,292.654 431.1,289.654 436.5,286.5 Z"/></g>
<g><path style="opacity:0.949" fill="#fdfefd" d="M 449.5,282.5 C 452.5,283.833 455.5,283.833 458.5,282.5C 458.762,283.978 458.429,285.311 457.5,286.5C 455.866,286.968 454.7,287.968 454,289.5C 453.502,292.817 453.335,296.15 453.5,299.5C 452.167,299.5 450.833,299.5 449.5,299.5C 449.5,293.833 449.5,288.167 449.5,282.5 Z"/></g>
<g><path style="opacity:0.839" fill="#fdfefd" d="M 491.5,282.5 C 495.989,282.956 500.322,282.956 504.5,282.5C 504.666,289.175 504.5,295.842 504,302.5C 502.334,305.666 499.668,307 496,306.5C 492.866,306.891 490.366,305.891 488.5,303.5C 490.15,300.307 492.483,299.974 495.5,302.5C 497.107,302.363 498.441,301.696 499.5,300.5C 486.739,298.926 484.073,292.926 491.5,282.5 Z M 495.5,286.5 C 501.763,289.239 501.93,292.239 496,295.5C 490.267,292.654 490.1,289.654 495.5,286.5 Z"/></g>
<g><path style="opacity:0.839" fill="#fdfefd" d="M 512.5,282.5 C 521.011,280.696 525.344,284.029 525.5,292.5C 521.445,292.176 517.445,292.509 513.5,293.5C 516.294,296.1 519.127,296.1 522,293.5C 524.952,295.193 525.118,297.026 522.5,299C 511.838,301.336 507.338,297.169 509,286.5C 510.376,285.295 511.542,283.962 512.5,282.5 Z M 514.5,286.5 C 516.977,286.051 518.977,286.717 520.5,288.5C 517.894,289.652 515.227,289.818 512.5,289C 513.381,288.292 514.047,287.458 514.5,286.5 Z"/></g>
<g><path style="opacity:0.929" fill="#fdfefd" d="M 527.5,282.5 C 530.378,283.585 533.211,283.585 536,282.5C 538.145,282.396 539.979,283.063 541.5,284.5C 542.448,289.435 542.781,294.435 542.5,299.5C 541.167,299.5 539.833,299.5 538.5,299.5C 538.665,296.15 538.498,292.817 538,289.5C 536,285.5 534,285.5 532,289.5C 531.502,292.817 531.335,296.15 531.5,299.5C 530.167,299.5 528.833,299.5 527.5,299.5C 527.5,293.833 527.5,288.167 527.5,282.5 Z"/></g>
<g><path style="opacity:0.839" fill="#fdfefd" d="M 549.5,282.5 C 558.011,280.696 562.344,284.029 562.5,292.5C 558.445,292.176 554.445,292.509 550.5,293.5C 553.294,296.1 556.127,296.1 559,293.5C 561.952,295.193 562.118,297.026 559.5,299C 548.838,301.336 544.338,297.169 546,286.5C 547.376,285.295 548.542,283.962 549.5,282.5 Z M 551.5,286.5 C 553.977,286.051 555.977,286.717 557.5,288.5C 554.894,289.652 552.227,289.818 549.5,289C 550.381,288.292 551.047,287.458 551.5,286.5 Z"/></g>
<g><path style="opacity:0.949" fill="#fdfefd" d="M 574.5,286.5 C 572.418,286.624 570.918,287.624 570,289.5C 569.502,292.817 569.335,296.15 569.5,299.5C 568.167,299.5 566.833,299.5 565.5,299.5C 565.5,293.833 565.5,288.167 565.5,282.5C 568.5,283.833 571.5,283.833 574.5,282.5C 574.5,283.833 574.5,285.167 574.5,286.5 Z"/></g>
<g><path style="opacity:0.849" fill="#fdfefd" d="M 574.5,286.5 C 575.962,285.542 577.295,284.376 578.5,283C 582.98,282.958 587.314,282.792 591.5,282.5C 591.5,288.167 591.5,293.833 591.5,299.5C 587.314,299.208 582.98,299.042 578.5,299C 574.835,295.702 573.502,291.535 574.5,286.5 Z M 582.5,286.5 C 588.763,289.239 588.93,292.239 583,295.5C 577.267,292.654 577.1,289.654 582.5,286.5 Z"/></g>
<g><path style="opacity:0.832" fill="#fdfefd" d="M 612.5,282.5 C 619.603,281.202 623.603,284.035 624.5,291C 624.333,296.5 621.5,299.333 616,299.5C 608.875,298.602 606.208,294.602 608,287.5C 609.025,285.313 610.525,283.646 612.5,282.5 Z M 615.5,286.5 C 621.763,289.239 621.93,292.239 616,295.5C 610.267,292.654 610.1,289.654 615.5,286.5 Z"/></g>
<g><path style="opacity:0.949" fill="#fdfefd" d="M 628.5,282.5 C 631.5,283.833 634.5,283.833 637.5,282.5C 637.762,283.978 637.429,285.311 636.5,286.5C 634.866,286.968 633.7,287.968 633,289.5C 632.502,292.817 632.335,296.15 632.5,299.5C 631.167,299.5 629.833,299.5 628.5,299.5C 628.5,293.833 628.5,288.167 628.5,282.5 Z"/></g>
<g><path style="opacity:0.797" fill="#fe8054" d="M 639.5,294.5 C 640.833,294.5 642.167,294.5 643.5,294.5C 643.5,296.167 643.5,297.833 643.5,299.5C 641.833,299.5 640.167,299.5 638.5,299.5C 638.366,297.708 638.699,296.042 639.5,294.5 Z"/></g>
</svg>
